<mxfile host="Electron" modified="2023-09-10T10:32:54.151Z" agent="Mozilla/5.0 (X11; Linux x86_64) AppleWebKit/537.36 (KHTML, like Gecko) draw.io/21.2.8 Chrome/112.0.5615.165 Electron/24.2.0 Safari/537.36" etag="xOiK5v4lV4G67RGyuUQv" version="21.2.8" type="device">
  <diagram name="Page-1" id="5f0bae14-7c28-e335-631c-24af17079c00">
    <mxGraphModel dx="1434" dy="834" grid="1" gridSize="10" guides="1" tooltips="1" connect="1" arrows="1" fold="1" page="1" pageScale="1" pageWidth="1100" pageHeight="850" background="none" math="0" shadow="0">
      <root>
        <mxCell id="0" />
        <mxCell id="1" parent="0" />
        <mxCell id="2sA8ss4dUg1SEBGeeCM0-12" value="" style="edgeStyle=orthogonalEdgeStyle;rounded=0;orthogonalLoop=1;jettySize=auto;html=1;" edge="1" parent="1" source="2sA8ss4dUg1SEBGeeCM0-1" target="2sA8ss4dUg1SEBGeeCM0-4">
          <mxGeometry relative="1" as="geometry" />
        </mxCell>
        <mxCell id="2sA8ss4dUg1SEBGeeCM0-15" value="" style="edgeStyle=orthogonalEdgeStyle;rounded=0;orthogonalLoop=1;jettySize=auto;html=1;endArrow=none;endFill=0;" edge="1" parent="1" source="2sA8ss4dUg1SEBGeeCM0-1" target="2sA8ss4dUg1SEBGeeCM0-3">
          <mxGeometry relative="1" as="geometry" />
        </mxCell>
        <mxCell id="2sA8ss4dUg1SEBGeeCM0-1" value="Shop" style="shape=component;align=left;spacingLeft=36;rounded=0;shadow=0;comic=0;labelBackgroundColor=none;strokeWidth=1;fontFamily=Verdana;fontSize=12;html=1;" vertex="1" parent="1">
          <mxGeometry x="230" y="295" width="120" height="60" as="geometry" />
        </mxCell>
        <mxCell id="2sA8ss4dUg1SEBGeeCM0-14" value="" style="edgeStyle=orthogonalEdgeStyle;rounded=0;orthogonalLoop=1;jettySize=auto;html=1;" edge="1" parent="1" source="2sA8ss4dUg1SEBGeeCM0-2" target="2sA8ss4dUg1SEBGeeCM0-3">
          <mxGeometry relative="1" as="geometry" />
        </mxCell>
        <mxCell id="2sA8ss4dUg1SEBGeeCM0-2" value="Order&lt;br&gt;Processing" style="shape=component;align=left;spacingLeft=36;rounded=0;shadow=0;comic=0;labelBackgroundColor=none;strokeWidth=1;fontFamily=Verdana;fontSize=12;html=1;" vertex="1" parent="1">
          <mxGeometry x="415" y="425" width="120" height="60" as="geometry" />
        </mxCell>
        <mxCell id="2sA8ss4dUg1SEBGeeCM0-3" value="" style="shape=cylinder3;whiteSpace=wrap;html=1;boundedLbl=1;backgroundOutline=1;size=15;" vertex="1" parent="1">
          <mxGeometry x="260" y="415" width="60" height="80" as="geometry" />
        </mxCell>
        <mxCell id="2sA8ss4dUg1SEBGeeCM0-13" value="" style="edgeStyle=orthogonalEdgeStyle;rounded=0;orthogonalLoop=1;jettySize=auto;html=1;" edge="1" parent="1" source="2sA8ss4dUg1SEBGeeCM0-4" target="2sA8ss4dUg1SEBGeeCM0-2">
          <mxGeometry relative="1" as="geometry" />
        </mxCell>
        <mxCell id="2sA8ss4dUg1SEBGeeCM0-4" value="" style="shape=cylinder3;whiteSpace=wrap;html=1;boundedLbl=1;backgroundOutline=1;size=15;rotation=-90;" vertex="1" parent="1">
          <mxGeometry x="460" y="285" width="30" height="80" as="geometry" />
        </mxCell>
        <mxCell id="2sA8ss4dUg1SEBGeeCM0-5" value="Shopper" style="shape=umlActor;verticalLabelPosition=bottom;verticalAlign=top;html=1;outlineConnect=0;" vertex="1" parent="1">
          <mxGeometry x="180" y="150" width="30" height="60" as="geometry" />
        </mxCell>
        <mxCell id="2sA8ss4dUg1SEBGeeCM0-8" value="/listarticles" style="text;html=1;strokeColor=none;fillColor=none;align=left;verticalAlign=middle;whiteSpace=wrap;rounded=0;" vertex="1" parent="1">
          <mxGeometry x="300" y="160" width="60" height="30" as="geometry" />
        </mxCell>
        <mxCell id="2sA8ss4dUg1SEBGeeCM0-9" value="/addtocart" style="text;html=1;strokeColor=none;fillColor=none;align=left;verticalAlign=middle;whiteSpace=wrap;rounded=0;" vertex="1" parent="1">
          <mxGeometry x="300" y="180" width="60" height="30" as="geometry" />
        </mxCell>
        <mxCell id="2sA8ss4dUg1SEBGeeCM0-10" value="/checkout" style="text;html=1;strokeColor=none;fillColor=none;align=left;verticalAlign=middle;whiteSpace=wrap;rounded=0;" vertex="1" parent="1">
          <mxGeometry x="300" y="200" width="60" height="30" as="geometry" />
        </mxCell>
        <mxCell id="2sA8ss4dUg1SEBGeeCM0-11" value="" style="endArrow=none;html=1;rounded=0;exitX=1;exitY=0.3333333333333333;exitDx=0;exitDy=0;exitPerimeter=0;entryX=0.5;entryY=0;entryDx=0;entryDy=0;edgeStyle=orthogonalEdgeStyle;" edge="1" parent="1" source="2sA8ss4dUg1SEBGeeCM0-5" target="2sA8ss4dUg1SEBGeeCM0-1">
          <mxGeometry width="50" height="50" relative="1" as="geometry">
            <mxPoint x="320" y="140" as="sourcePoint" />
            <mxPoint x="370" y="90" as="targetPoint" />
          </mxGeometry>
        </mxCell>
        <mxCell id="2sA8ss4dUg1SEBGeeCM0-17" value="" style="edgeStyle=orthogonalEdgeStyle;rounded=0;orthogonalLoop=1;jettySize=auto;html=1;" edge="1" parent="1" source="2sA8ss4dUg1SEBGeeCM0-16" target="2sA8ss4dUg1SEBGeeCM0-3">
          <mxGeometry relative="1" as="geometry" />
        </mxCell>
        <mxCell id="2sA8ss4dUg1SEBGeeCM0-16" value="Batch&lt;br&gt;Article &lt;br&gt;Import" style="shape=component;align=left;spacingLeft=36;rounded=0;shadow=0;comic=0;labelBackgroundColor=none;strokeWidth=1;fontFamily=Verdana;fontSize=12;html=1;" vertex="1" parent="1">
          <mxGeometry x="80" y="425" width="120" height="60" as="geometry" />
        </mxCell>
        <mxCell id="2sA8ss4dUg1SEBGeeCM0-20" value="" style="edgeStyle=orthogonalEdgeStyle;rounded=0;orthogonalLoop=1;jettySize=auto;html=1;" edge="1" parent="1" source="2sA8ss4dUg1SEBGeeCM0-18" target="2sA8ss4dUg1SEBGeeCM0-16">
          <mxGeometry relative="1" as="geometry" />
        </mxCell>
        <mxCell id="2sA8ss4dUg1SEBGeeCM0-18" value="&lt;br&gt;CSV" style="shape=note;whiteSpace=wrap;html=1;backgroundOutline=1;darkOpacity=0.05;aspect=fixed;" vertex="1" parent="1">
          <mxGeometry x="108.5" y="532" width="63" height="78.75" as="geometry" />
        </mxCell>
        <mxCell id="2sA8ss4dUg1SEBGeeCM0-19" value="&lt;br&gt;Order" style="shape=note;whiteSpace=wrap;html=1;backgroundOutline=1;darkOpacity=0.05;aspect=fixed;" vertex="1" parent="1">
          <mxGeometry x="530" y="330" width="63" height="78.75" as="geometry" />
        </mxCell>
      </root>
    </mxGraphModel>
  </diagram>
</mxfile>
